<svg id="visual" viewBox="0 0 900 675" width="900" height="675" xmlns="http://www.w3.org/2000/svg" xmlns:xlink="http://www.w3.org/1999/xlink" version="1.1"><rect x="0" y="0" width="900" height="675" fill="#000000"></rect><defs><linearGradient id="grad1_0" x1="25%" y1="0%" x2="100%" y2="100%"><stop offset="23.333333333333336%" stop-color="#000000" stop-opacity="1"></stop><stop offset="76.66666666666666%" stop-color="#000000" stop-opacity="1"></stop></linearGradient></defs><defs><linearGradient id="grad2_0" x1="0%" y1="0%" x2="75%" y2="100%"><stop offset="23.333333333333336%" stop-color="#000000" stop-opacity="1"></stop><stop offset="76.66666666666666%" stop-color="#000000" stop-opacity="1"></stop></linearGradient></defs><g transform="translate(900, 0)"><path d="M0 450C-83 440.7 -166 431.4 -225 389.7C-284 348 -319 273.9 -352.5 203.5C-386 133.1 -418 66.6 -450 0L0 0Z" fill="#004377"></path></g><g transform="translate(0, 675)"><path d="M0 -450C72.7 -428.6 145.4 -407.2 215 -372.4C284.6 -337.6 351.1 -289.3 389.7 -225C428.4 -160.7 439.2 -80.3 450 0L0 0Z" fill="#004377"></path></g></svg>