<?xml version="1.0" encoding="UTF-8"?>
<svg xmlns="http://www.w3.org/2000/svg" xmlns:xlink="http://www.w3.org/1999/xlink" width="px" height="px" viewBox="0 0 600 600" version="1.1">
<g id="surface1">
<path style=" stroke:none;fill-rule:nonzero;fill:rgb(24.705882%,44.705882%,60.784314%);fill-opacity:1;" d="M 300 0 C 465.671875 0 600 134.324219 600 300 C 600 465.675781 465.675781 600 300 600 C 134.328125 600 0 465.675781 0 300 C 0 134.328125 134.304688 0 300 0 Z M 300 0 "/>
<path style=" stroke:none;fill-rule:nonzero;fill:rgb(100%,100%,100%);fill-opacity:1;" d="M 403.535156 131.210938 L 196.445312 131.210938 C 160.464844 131.210938 131.210938 160.480469 131.210938 196.445312 L 131.210938 403.558594 C 131.210938 439.539062 160.480469 468.789062 196.445312 468.789062 L 403.558594 468.789062 C 439.539062 468.789062 468.789062 439.519531 468.789062 403.558594 L 468.789062 196.445312 C 468.789062 160.480469 439.519531 131.210938 403.535156 131.210938 Z M 424.085938 168.957031 L 431.476562 168.9375 L 431.476562 224.964844 L 375.039062 225.152344 L 374.851562 169.125 C 374.851562 169.125 424.085938 168.957031 424.085938 168.957031 Z M 300 243.523438 C 346.820312 243.523438 356.476562 287.472656 356.476562 300.015625 C 356.476562 331.125 331.125 356.472656 300 356.472656 C 268.859375 356.472656 243.527344 331.125 243.527344 300.015625 C 243.507812 287.472656 253.183594 243.523438 300 243.523438 Z M 431.792969 399.46875 C 431.792969 417.300781 417.300781 431.8125 399.433594 431.8125 L 199.929688 431.8125 C 182.082031 431.8125 167.570312 417.320312 167.570312 399.46875 L 167.570312 262.425781 L 214.441406 262.425781 C 210.09375 273.132812 207.636719 287.757812 207.636719 300.019531 C 207.636719 350.90625 249.035156 392.328125 299.945312 392.328125 C 350.851562 392.328125 392.230469 350.90625 392.230469 300.019531 C 392.230469 287.757812 389.773438 273.132812 385.441406 262.425781 L 431.753906 262.425781 L 431.753906 399.46875 Z M 431.792969 399.46875 "/>
</g>
</svg>
