<?xml version="1.0" encoding="UTF-8"?>
<svg xmlns="http://www.w3.org/2000/svg" xmlns:xlink="http://www.w3.org/1999/xlink" width="px" height="px" viewBox="0 0 600 600" version="1.1">
<g id="surface1">
<path style=" stroke:none;fill-rule:nonzero;fill:rgb(0%,47.843137%,72.54902%);fill-opacity:1;" d="M 600 299.996094 C 600 465.679688 465.683594 599.996094 300 599.996094 C 134.316406 599.996094 0 465.679688 0 299.996094 C 0 134.308594 134.316406 -0.00390625 300 -0.00390625 C 465.683594 -0.00390625 600 134.308594 600 299.996094 Z M 600 299.996094 "/>
<path style=" stroke:none;fill-rule:nonzero;fill:rgb(94.509804%,94.901961%,94.901961%);fill-opacity:1;" d="M 479.246094 324.132812 L 479.246094 447.816406 L 407.539062 447.816406 L 407.539062 332.421875 C 407.539062 303.449219 397.183594 283.664062 371.222656 283.664062 C 351.410156 283.664062 339.636719 296.984375 334.441406 309.882812 C 332.550781 314.492188 332.066406 320.894531 332.066406 327.359375 L 332.066406 447.8125 L 260.351562 447.8125 C 260.351562 447.8125 261.3125 252.371094 260.351562 232.140625 L 332.070312 232.140625 L 332.070312 262.703125 C 331.925781 262.945312 331.722656 263.179688 331.59375 263.410156 L 332.070312 263.410156 L 332.070312 262.703125 C 341.601562 248.039062 358.59375 227.078125 396.699219 227.078125 C 443.875 227.078125 479.246094 257.902344 479.246094 324.132812 Z M 185.332031 128.179688 C 160.800781 128.179688 144.753906 144.285156 144.753906 165.4375 C 144.753906 186.144531 160.335938 202.714844 184.390625 202.714844 L 184.855469 202.714844 C 209.867188 202.714844 225.417969 186.144531 225.417969 165.4375 C 224.945312 144.285156 209.867188 128.179688 185.332031 128.179688 Z M 149.015625 447.816406 L 220.703125 447.816406 L 220.703125 232.140625 L 149.015625 232.140625 Z M 149.015625 447.816406 "/>
</g>
</svg>
