<svg id="visual" viewBox="0 0 960 540" width="960" height="540" xmlns="http://www.w3.org/2000/svg" xmlns:xlink="http://www.w3.org/1999/xlink" version="1.1"><g stroke-width="1" stroke-linejoin="bevel"><path d="M530.6 275L421.4 392L540.6 390Z" fill="#121a28" stroke="#121a28"></path><path d="M530.6 275L397.4 266L421.4 392Z" fill="#142b48" stroke="#142b48"></path><path d="M540.6 390L673.7 295L530.6 275Z" fill="#142b48" stroke="#142b48"></path><path d="M421.4 392L543.6 540L540.6 390Z" fill="#0b0e14" stroke="#0b0e14"></path><path d="M540.6 390L698.7 417L673.7 295Z" fill="#14253d" stroke="#14253d"></path><path d="M673.7 295L522.6 125L530.6 275Z" fill="#0b0e14" stroke="#0b0e14"></path><path d="M530.6 275L434.4 122L397.4 266Z" fill="#093d6b" stroke="#093d6b"></path><path d="M259.3 379L394.4 540L421.4 392Z" fill="#004377" stroke="#004377"></path><path d="M421.4 392L394.4 540L543.6 540Z" fill="#123153" stroke="#123153"></path><path d="M522.6 125L434.4 122L530.6 275Z" fill="#14253d" stroke="#14253d"></path><path d="M264.3 243L259.3 379L397.4 266Z" fill="#14253d" stroke="#14253d"></path><path d="M397.4 266L259.3 379L421.4 392Z" fill="#131f32" stroke="#131f32"></path><path d="M543.6 540L698.7 417L540.6 390Z" fill="#123153" stroke="#123153"></path><path d="M292.3 143L264.3 243L397.4 266Z" fill="#123153" stroke="#123153"></path><path d="M434.4 122L292.3 143L397.4 266Z" fill="#0f375f" stroke="#0f375f"></path><path d="M543.6 540L680.7 540L698.7 417Z" fill="#093d6b" stroke="#093d6b"></path><path d="M259.3 379L269.3 540L394.4 540Z" fill="#121a28" stroke="#121a28"></path><path d="M673.7 295L709.7 118L522.6 125Z" fill="#050505" stroke="#050505"></path><path d="M522.6 125L426.4 0L434.4 122Z" fill="#123153" stroke="#123153"></path><path d="M807.9 158L709.7 118L673.7 295Z" fill="#131f32" stroke="#131f32"></path><path d="M544.6 0L426.4 0L522.6 125Z" fill="#123153" stroke="#123153"></path><path d="M434.4 122L426.4 0L292.3 143Z" fill="#142b48" stroke="#142b48"></path><path d="M671.7 0L544.6 0L522.6 125Z" fill="#093d6b" stroke="#093d6b"></path><path d="M798.9 540L820.9 383L698.7 417Z" fill="#004377" stroke="#004377"></path><path d="M698.7 417L820.9 383L673.7 295Z" fill="#0b0e14" stroke="#0b0e14"></path><path d="M114.1 292L132.1 389L259.3 379Z" fill="#093d6b" stroke="#093d6b"></path><path d="M259.3 379L136.1 540L269.3 540Z" fill="#123153" stroke="#123153"></path><path d="M114.1 292L259.3 379L264.3 243Z" fill="#050505" stroke="#050505"></path><path d="M127.1 138L264.3 243L292.3 143Z" fill="#0b0e14" stroke="#0b0e14"></path><path d="M127.1 138L114.1 292L264.3 243Z" fill="#093d6b" stroke="#093d6b"></path><path d="M820.9 383L839.9 248L673.7 295Z" fill="#0f375f" stroke="#0f375f"></path><path d="M839.9 248L807.9 158L673.7 295Z" fill="#050505" stroke="#050505"></path><path d="M709.7 118L671.7 0L522.6 125Z" fill="#131f32" stroke="#131f32"></path><path d="M680.7 540L798.9 540L698.7 417Z" fill="#121a28" stroke="#121a28"></path><path d="M820.9 383L960 391L839.9 248Z" fill="#050505" stroke="#050505"></path><path d="M811.9 0L671.7 0L709.7 118Z" fill="#131f32" stroke="#131f32"></path><path d="M426.4 0L271.3 0L292.3 143Z" fill="#121a28" stroke="#121a28"></path><path d="M0 540L136.1 540L132.1 389Z" fill="#14253d" stroke="#14253d"></path><path d="M132.1 389L136.1 540L259.3 379Z" fill="#121a28" stroke="#121a28"></path><path d="M271.3 0L127.1 138L292.3 143Z" fill="#004377" stroke="#004377"></path><path d="M271.3 0L149.1 0L127.1 138Z" fill="#0b0e14" stroke="#0b0e14"></path><path d="M960 116L811.9 0L807.9 158Z" fill="#14253d" stroke="#14253d"></path><path d="M807.9 158L811.9 0L709.7 118Z" fill="#142b48" stroke="#142b48"></path><path d="M114.1 292L0 383L132.1 389Z" fill="#121a28" stroke="#121a28"></path><path d="M0 260L0 383L114.1 292Z" fill="#0f375f" stroke="#0f375f"></path><path d="M0 260L114.1 292L127.1 138Z" fill="#131f32" stroke="#131f32"></path><path d="M960 540L960 391L820.9 383Z" fill="#123153" stroke="#123153"></path><path d="M839.9 248L960 116L807.9 158Z" fill="#14253d" stroke="#14253d"></path><path d="M0 161L0 260L127.1 138Z" fill="#14253d" stroke="#14253d"></path><path d="M960 391L960 243L839.9 248Z" fill="#0f375f" stroke="#0f375f"></path><path d="M0 0L0 161L127.1 138Z" fill="#131f32" stroke="#131f32"></path><path d="M798.9 540L960 540L820.9 383Z" fill="#10151e" stroke="#10151e"></path><path d="M0 383L0 540L132.1 389Z" fill="#10151e" stroke="#10151e"></path><path d="M960 243L960 116L839.9 248Z" fill="#142b48" stroke="#142b48"></path><path d="M960 116L960 0L811.9 0Z" fill="#093d6b" stroke="#093d6b"></path><path d="M149.1 0L0 0L127.1 138Z" fill="#004377" stroke="#004377"></path></g></svg>