<?xml version="1.0" encoding="UTF-8"?>
<svg xmlns="http://www.w3.org/2000/svg" xmlns:xlink="http://www.w3.org/1999/xlink" width="px" height="px" viewBox="0 0 600 600" version="1.1">
<g id="surface1">
<path style=" stroke:none;fill-rule:nonzero;fill:rgb(33.333333%,67.45098%,93.333333%);fill-opacity:1;" d="M 600 299.996094 C 600 465.679688 465.6875 599.996094 300.003906 599.996094 C 134.320312 599.996094 0.00390625 465.679688 0.00390625 299.996094 C 0.00390625 134.3125 134.320312 0 300.003906 0 C 465.6875 0 600 134.3125 600 299.996094 Z M 600 299.996094 "/>
<path style=" stroke:none;fill-rule:nonzero;fill:rgb(94.509804%,94.901961%,94.901961%);fill-opacity:1;" d="M 483.761719 215.597656 C 470.90625 221.300781 457.078125 225.15625 442.574219 226.878906 C 457.382812 218.003906 468.746094 203.96875 474.109375 187.214844 C 460.253906 195.433594 444.898438 201.394531 428.574219 204.609375 C 415.492188 190.679688 396.855469 181.972656 376.21875 181.972656 C 336.625 181.972656 304.511719 214.085938 304.511719 253.679688 C 304.511719 259.300781 305.148438 264.773438 306.378906 270.023438 C 246.78125 267.035156 193.941406 238.488281 158.570312 195.089844 C 152.398438 205.679688 148.859375 218.003906 148.859375 231.144531 C 148.859375 256.015625 161.527344 277.976562 180.757812 290.832031 C 169.011719 290.460938 157.945312 287.238281 148.28125 281.851562 C 148.277344 282.15625 148.277344 282.460938 148.277344 282.761719 C 148.277344 317.503906 173.003906 346.484375 205.800781 353.066406 C 199.792969 354.714844 193.445312 355.585938 186.914062 355.585938 C 182.28125 355.585938 177.796875 355.144531 173.421875 354.308594 C 182.546875 382.789062 209.023438 403.523438 240.40625 404.105469 C 215.863281 423.34375 184.945312 434.804688 151.339844 434.804688 C 145.566406 434.804688 139.84375 434.464844 134.246094 433.796875 C 165.960938 454.152344 203.664062 466.019531 244.15625 466.019531 C 376.054688 466.019531 448.183594 356.753906 448.183594 261.984375 C 448.183594 258.878906 448.113281 255.78125 447.972656 252.710938 C 461.996094 242.605469 474.152344 229.980469 483.761719 215.597656 Z M 483.761719 215.597656 "/>
</g>
</svg>
